<svg width="10" height="10" viewBox="0 0 10 10" fill="none" xmlns="http://www.w3.org/2000/svg">
<path fill-rule="evenodd" clip-rule="evenodd" d="M6.41667 3.91584C6.73075 3.91579 7.03644 3.81439 7.28829 3.62672C7.54014 3.43905 7.72472 3.17513 7.81458 2.87417H8.91667C9.02717 2.87417 9.13315 2.83028 9.2113 2.75214C9.28944 2.674 9.33333 2.56801 9.33333 2.45751C9.33333 2.347 9.28944 2.24102 9.2113 2.16288C9.13315 2.08474 9.02717 2.04084 8.91667 2.04084H7.81458C7.72457 1.74004 7.53993 1.4763 7.28809 1.28879C7.03625 1.10128 6.73065 1 6.41667 1C6.10269 1 5.79708 1.10128 5.54524 1.28879C5.2934 1.4763 5.10876 1.74004 5.01875 2.04084H1.41667C1.30616 2.04084 1.20018 2.08474 1.12204 2.16288C1.0439 2.24102 1 2.347 1 2.45751C1 2.56801 1.0439 2.674 1.12204 2.75214C1.20018 2.83028 1.30616 2.87417 1.41667 2.87417H5.01875C5.10862 3.17513 5.29319 3.43905 5.54504 3.62672C5.7969 3.81439 6.10258 3.91579 6.41667 3.91584ZM1.41667 6.20751C1.30616 6.20751 1.20018 6.25141 1.12204 6.32955C1.0439 6.40769 1 6.51367 1 6.62417C1 6.73468 1.0439 6.84066 1.12204 6.9188C1.20018 6.99694 1.30616 7.04084 1.41667 7.04084H2.31042C2.40043 7.34164 2.58507 7.60538 2.83691 7.79289C3.08875 7.98041 3.39435 8.08168 3.70833 8.08168C4.02231 8.08168 4.32792 7.98041 4.57976 7.79289C4.8316 7.60538 5.01624 7.34164 5.10625 7.04084H8.91667C9.02717 7.04084 9.13315 6.99694 9.2113 6.9188C9.28944 6.84066 9.33333 6.73468 9.33333 6.62417C9.33333 6.51367 9.28944 6.40769 9.2113 6.32955C9.13315 6.25141 9.02717 6.20751 8.91667 6.20751H5.10625C5.01624 5.90671 4.8316 5.64297 4.57976 5.45545C4.32792 5.26794 4.02231 5.16667 3.70833 5.16667C3.39435 5.16667 3.08875 5.26794 2.83691 5.45545C2.58507 5.64297 2.40043 5.90671 2.31042 6.20751H1.41667Z" fill="#FAAC01"/>
</svg>
