<svg width="30" height="30" viewBox="0 0 30 30" fill="none" xmlns="http://www.w3.org/2000/svg">
<g clip-path="url(#clip0_924_1357)">
<path fill-rule="evenodd" clip-rule="evenodd" d="M6.45457 15C6.45457 14.0474 6.61279 13.134 6.89519 12.2774L1.95218 8.50269C0.988815 10.4587 0.446045 12.6627 0.446045 15C0.446045 17.3354 0.988147 19.538 1.95018 21.4927L6.89052 17.7107C6.61079 16.858 6.45457 15.948 6.45457 15Z" fill="#FBBC05"/>
<path fill-rule="evenodd" clip-rule="evenodd" d="M15.1336 6.33325C17.2032 6.33325 19.0725 7.06659 20.5412 8.26658L24.814 3.99992C22.2103 1.73325 18.8722 0.333252 15.1336 0.333252C9.32934 0.333252 4.34093 3.65259 1.95221 8.50259L6.89522 12.2773C8.03417 8.81992 11.2808 6.33325 15.1336 6.33325Z" fill="#EB4335"/>
<path fill-rule="evenodd" clip-rule="evenodd" d="M15.1336 23.6667C11.2808 23.6667 8.03417 21.18 6.89522 17.7227L1.95221 21.4967C4.34093 26.3473 9.32934 29.6667 15.1336 29.6667C18.716 29.6667 22.1362 28.3947 24.7031 26.0113L20.0112 22.384C18.6873 23.218 17.0202 23.6667 15.1336 23.6667Z" fill="#34A853"/>
<path fill-rule="evenodd" clip-rule="evenodd" d="M29.1534 14.9999C29.1534 14.1333 29.0199 13.1999 28.8196 12.3333H15.1335V17.9999H23.0114C22.6175 19.9319 21.5453 21.4173 20.0111 22.3839L24.7031 26.0113C27.3996 23.5086 29.1534 19.7806 29.1534 14.9999Z" fill="#4285F4"/>
</g>
<defs>
<clipPath id="clip0_924_1357">
<rect width="30" height="30" fill="white"/>
</clipPath>
</defs>
</svg>
