<?xml version="1.0" encoding="UTF-8"?>
<svg version="1.1" viewBox="0 0 2048 2041" width="2048" height="2041" xmlns="http://www.w3.org/2000/svg">
<path transform="translate(1389,632)" d="m0 0 5 1 19 10-1 7-7 12-9 9-14 9-15 7-19 6-39 10-20 7-7 2 2 18 5 20 3 8 18 8 13 9 13 13 7 11 8 16 6 19 5 23 7 44 5 17 6 10 7 8 9 5 4 1h9l8-3 4-2 2-4 3-7v-11l-5-10-11-8-13-5v-1h11l13 3 12 6 7 6 6 10 2 7v15l-4 13-7 11-9 9-12 7-13 3h-11l-16-4-16-8-8-6-9-8-11-15-8-14-10-25-9-29-8-26-8-16-7-9-7-6-2-1v10l-4 11-8 10-9 9-14 10-10 10-6 11-1 4v9l6 12 3 3v2h2l5 5 10 8 11 7 4 23 5 16 7 14 8 10 5 5 7 6 10 6-1 13-5 32 14-1h51l39 3 38 5 24 4 24 5 37 8 38 10h4l34-68-4-6-10-11-9-11-13-15-12-14-8-10 2-1 5 2h16l12-4 13-8 10-8 10-10 10-13 9-16 5-11 4-15 1-14-2-10-5-10-7-7-14-7-12-3h-6l-9 12-9 11h-2l-2 4-13 12-15 11-19 11-18 8-18 6-6 1-11-15-13-19-16-23-7-10v-2l20-3 15-4 18-8 13-8 10-8 3-3h2v-2h2l2-4 10-11 10-15 12-25 2-4 5 2 21 16 12 9 14 11 16 13 13 11 11 9 11 10 8 7 12 11 11 11 2 1v2h2v2h2l7 8 10 10 9 11 7 8 13 18 6 11-1 7-7 16-8 15-10 14-12 14-13 12-18 13-10 6-22 10-19 6-8 13-15 26-9 15-9 16 7 1 18 6-1 8-7 26-16 58 32 5 23 2h43l33-3 32-5 27-6 7-1-5 5-14 8-24 9-24 7-34 7-31 4-17 1-57 1-32 3-26 4-27 6-29 9-24 10-21 11-15 10-10 9-20 20-7 8-14 15-7 8-11 13-14 17-10 13-14 19-16 23-11 18-9 15-14 25-21 42-16 36-18 44-16 42-17 46-20 56-9 27-19 67-19 69-11 35-4 9-2-1 10-56 10-50 13-57 14-55 17-59 15-48 16-47 16-43 20-50 13-30 15-33 15-32 10-19 16-31 12-21 19-32 18-27 14-19 12-20 5-13 1-4v-14l-4-9-7-8-16-8-13-4-6-1h-22l-17 4-19 9-14 10-12 11-11 11-12 16-11 14-12 14-11 14-14 18-13 17-14 19-13 18-11 16-28 42-13 21-9 16-10 17-8 14-10 19-12 23-13 26-15 33-13 30-14 35-13 35-15 43-16 50-17 58-9 32-19 90-11 50-7 28-5 15-3 2 4-39 7-51 8-49 10-52 11-49 11-44 15-53 12-38 18-53 17-45 17-41 16-36 6-13 11-23 10-21 10-19 10-18 6-12 14-24 9-16 9-15 14-22 22-33 12-17 14-19 13-16 9-14 6-15 1-5v-9l-3-5-5-2-11 2-16 8-16 11-16 13-15 14-15 16-9 10-9 11-12 14-11 14-13 16-13 17-14 17-8 10-9 11-12 14-9 10-7 8-16 16-11 9-8 7-15 9-10 4-7 1h-11l-13-5-12-8-12-11-13-13-11-14-10-13-11-16-11-17-12-20-12-21-14-26-12-23-7-15v-2l-29 15-29 13-28 11-28 10-27 9-7 2 1 5 8 18 18 36 10 17 9-3 30-13 27-12 35-16 15-7 3 1-11 8-20 14-17 11-22 13-24 13-15 7 5 10 15 23 9 14 13 19 13 18 10 14 16 21 10 13 14 18 14 17 9 11 12 14 9 11 13 15 10 11 7 8 11 12 9 10 14 15 12 13h-3l-14-10-18-14-14-11v-2l-4-2-15-13-15-14-5-4-25-25-7-8-9-9-7-8-11-12-9-11-9-10-8-10-9-11-14-18-16-21-12-17-10-14-26-39-11-17-13-21-13-22-12-21-13-24-1-3 38-12 25-9 36-15 33-15 25-12-1-8-5-21-2-16 1-17 4-14 5-11 9-14 12-14 11-10h2l2-4 7-5h2v-2l20-14 15-9-1-17 1-8h1l3 15 6 15 3 4v2l-15 8-22 16-15 14-8 9-9 14-4 8-4 13-1 14 2 12 5 13 6 10 5-1 23-12 8-5h2l15 36 15 35 14 30 17 34 14 24 10 16 11 15 12 14 7 7 13 9 9 3h11l9-3 8-6 11-14 11-15 12-16 13-17 10-13 14-18 13-16 11-14 12-14 8-10 12-14 13-15 9-10 7-8 14-15 12-13 25-25 10-8 10-6 16-7 19-5 20-3 34-2 5-20 6-12 9-10 11-7 11-4h4l2-15 3-17v-4l-9-7-3-3v-2h-2l-11-16-8-16-6-17-3-17-4-2-10-9-7-8-7-11-5-13-1-6v-12l3-12 7-14 11-14 11-12 10-10 5-8 1-19-7-1 1-10 6-14 8-10 10-7 5-3-5-17-2-12v-14l3-10 4-6 5-4 16-6 36-10 20-7 19-9 12-9 6-7 4-9zm-68 453-39 3-11 2-8 4-3 2v2h-2l-4 8-3 13 3 1 36 4 42 7 42 9 64 16 53 15 70 21h5l10-31 10-32v-2l-18-6-60-15-50-10-41-6-29-3-38-2z" fill="#CC9866"/>
<path transform="translate(1450,13)" d="m0 0h21l21 2 25 5 20 6 24 10 17 9 17 11 16 12 11 10 8 7 3 3v2h2l2 3 20-1h45l28 3 25 5 26 8 19 8 18 10 17 12 13 11 8 7 7 8 9 10 13 18 9 16 8 16 8 17 11 33 7 30 5 33 2 23 1 52 12 14 15 20 12 17 12 19 12 21 11 21 12 28 12 36 6 24 5 28 3 25v53l-4 32-6 31-8 28-9 25-11 24-10 19-3 3-12-16-12-13-11-10-15-11-17-10-15-7-27-9-25-5-14-2-2 6-13 29-18 45-13 34-2 3v-10l4-32 6-35 6-27 8-29 8-23 9-20 9-17 10-14 11-12 10-8 12-6h2l-1 13-5 19-7 19-10 22 10 1 24 7 18 8 17 9 17 12 11 9 4 3v2l4 2 10 11 3-3 11-23 8-24 4-19 2-16v-42l-4-29-7-30-10-30-10-24-12-25-12-23-9-15-12-19-11-16-12-17-11-14-13-16-9-10-1-9-1-30-3-30-5-29-7-26-8-22-10-21-10-16-8-11-11-13-11-11-17-13-20-12-23-10-24-7-22-4-25-2h-17l-24 2-16-17-14-13-19-14-21-12-18-8-18-6-24-5-25-2-24 1-21 3-21 5-19 7h-2l-4 18-4 24-2 23v46l2 23 5 36 6 31 10 40 12 38 13 40 9 36 5 27 3 25 15-38v-8l-7-43-8-40-13-54-5-28-2-18-1-16v-22l3-27 4-19 7-20 11-21 9-12h2l6 13 7 22 4 16 4 28 1 13v56l-3 33-2-2-3-40-6-32-5-20-3-7-2 3-4 19-2 19v28l2 24 6 36 10 52 4 25 2-3 11-35 23 4 17 4-2-20-1-17v-24l2-26 5-30 7-26 8-21 11-23 9-14 2 1 6 20 4 27 1 31-2 32-4 29-5 26-2 3-1-32-3-31-4-17v-3h-2l-1 7-6 27-3 19-2 29v14l1 25 10 2 25 9 26 11 16 8 1-8 7-23 10-24 7-14 1 3-4 15-2 12-1 13v12l2 19 2 8 17 11 13 9h2l12-21 9-15h1l-2 25-2 21v6l15 14 8 7 9-1 15-2 25-1 23 2 19 4 19 7 15 8 11 8 10 9 9 9 10 14 9 16 8 19 7 24 4 21 3 28v13l-3-4-8-16-10-16-11-15-8-10-11-12-18-18-20-15-10-7-16-9-13-7v-1h15l17 3 12 4 14 7-5-9-9-10-7-6-14-8-12-5-16-4-13-2-18-1h-11l18 21 10 13 12 17 11 17 8 14 8 16 6 13-1 2-9-15-17-25-8-10-12-14-1-3h-2l-7-8-20-20-11-9-12-10-18-13-17-11-21-12-23-12-28-12-34-12-31-8-22-4-12 25-14 26-16 27-15 22-12 16-9 11-11 12-1 2h-2v2l-8 7-7 7-15 11-9 5 2-5 9-11 12-16 11-18 9-17-1-17-4-20-6-20-9-24-15-33-17-35-13-28-11-25-11-29-7-21-7-28-4-22-4-31-3-38v-47l2-25 4-24 6-23 3-5 22-10 25-9 17-5 26-5z" fill="#CC9866"/>
<path transform="translate(782,126)" d="m0 0h1l-1 12-2 20v41l3 30 5 30 4 18 10 34 9 25 11 26 16 33 13 23 12 21 8 16 9 20 8 22 6 25 2 14v24l-3 17-6 18-10 17-11 14-12 12-14 11-15 10-17 10-17 9 4 3 20 11 19 12 15 10 14 10 17 13 16 13 15 13 15 14 28 28 6 7-1 2-9-8-13-10-19-14-17-12-21-14-19-12-26-15-29-15-23-11-27-11-25-9-29-9-34-8-31-5-30-3-28-1-31 1-30 3-35 6-31 8-15 5-16 6-23 10-20 10-20 12-16 11-12 9-10 8-10 9-8 7-17 17-7 8-14 17-13 18-12 19-12 22-8 18 77 1 2-6 13-22 12-17 9-12 9-11 12-14 8-8 1-2h2v-2h2l2-4 10-9 12-11 14-11 15-11 19-12 18-10 19-9 25-9 25-7 29-5 3 1-23 8-24 11-21 11-19 12-14 10-14 11-9 8h-2v2l-8 7-11 11-9 11-10 12-12 17-15 26-9 19-6 15h650l9 11 15 20 1 3h-886l3-9 13-26 13-23 12-20 10-15 12-17 14-18 13-15 9-10 2-3h2l2-4 14-14 8-7 10-9 14-11 16-12 15-10 10-6 17-10 25-12 26-11 34-11 35-8 30-5 31-3 22-1h32l34 2-5-9-10-12-8-1h-48l-32 2-20 2h-8l8-14 10-14 8-10 9-10 8-8 14-10 12-6 10-3 7-1h11l14 3 16 7 14 10 12 11 7 8 11 14 10 15 6 11v2l-25-4-3-1 11 17 2 7 11 1 26 6 29 9 26 10 20 9 17 8 12-8 13-10 13-12 7-7 11-14 8-13 7-15 5-16 3-21-1-17-4-19-9-27-12-29-24-54-12-28-12-30-9-25-9-31-7-31-3-22-1-10v-40l4-28 6-23z" fill="#CC9866"/>
<path transform="translate(0,941)" d="m0 0h1164l-3 3-25 10-25 9-34 10-30 7-28 5-33 4-17 1h-180l-3-1v2l5 2 11 8 8 8 11 14 2 6-15 11-4 1-10-14-2-4-4-2-9-6-8-3h-14l-9 4-16 10-19 14-21 13-23 11-20 6-14 2h-19l-14-3-18-6-16-9-13-10-7-7-6-5-6-8 4 2 10 7 13 8 17 7 19 5 9 1h11l17-3 13-5 12-8 7-4 21-16 30-20 14-7-535-1-37-3-36-5-38-8-28-8-21-7-22-9-16-8z" fill="#CC9866"/>
<path transform="translate(889,2)" d="m0 0 1 4-3 20-2 31v20l2 33 4 31 7 36 8 31 12 36 12 31 12 26 9 19 12 22 15 26 13 24 12 25 11 29 7 24 4 22 1 9v27l-3 19-5 16-5 12-8 14-9 12-9 10-10 10-11 9-10 8-15 10-22 13-19 10-3-1 11-8 16-12 20-18 10-11 10-13 11-18 6-14 5-15 4-20 1-20-3-22-6-22-7-21-16-39-17-38-16-36-18-43-14-38-10-31-7-26-6-29-4-30-1-14v-36l3-27 5-24 7-23z" fill="#CC9866"/>
<path transform="translate(317,1014)" d="m0 0h2l-2 5-3 9v19l27-13 22-7 14-3 23-2 23 2 19 5 16 7 11 6 14 10 15 13 14 15 12 16 10 15 13 23 11 23 11 29 2 9-3-4-8-16-12-23-12-19-11-15-9-11-14-14-16-11-13-6-13-4-11-2-19-1-17 3-15 6-14 8-13 10-10 9-8 8-1 2h-2l-6-15-3-14v-9l3-10 2-4h2l1 11 2 5 12-7 16-9 20-8 19-5 17-2h7l1-1-10-2-20-3h-17l-20 3-21 6-25 12-15 10-11 9-2-2-2-12v-24l4-13 5-9 3-4h2v-2z" fill="#CC9866"/>
<path transform="translate(1419,654)" d="m0 0 12 2 23 7 14 7 8 10 6 13 3 14v22l-3-4-8-16-10-14-10-10-10-6-9-3h-8l-6 3v2l10 8 7 8 8 16 2 9v13l-14-7-23-13-18-10 2-5 9-14 9-11 4-13z" fill="#CC9866"/>
<path transform="translate(1605,848)" d="m0 0 10 1 5 3 5 10 1 14-2 10-5 12-7 11-13 13-13 8-13 4-6-8v-2l-5-2-10-3-17 1 4-6 11-10 14-8 7-2 10 1 7 4 4 3 2-4 9-13 6-12 1-3v-8l-4-4h-15l-8 1 4-4 11-5z" fill="#CC9866"/>
<path transform="translate(1277,1221)" d="m0 0 6 2 2 4v7l-4 12-7 13-10 13-10 10-9 6-6 2-6-1-3-5 1-10 5-13 8-13 9-11 7-7 11-7z" fill="#CC9866"/>
<path transform="translate(999,1753)" d="m0 0h6l4 4 2 6 1 13-2 18-5 17-7 14-4 5-5 3h-5l-4-5-2-5-1-6v-12l3-18 6-18 7-11z" fill="#CC9866"/>
<path transform="translate(1065,1568)" d="m0 0 6 1 3 4 1 3v18l-4 16-8 18-7 10-9 8h-6l-3-3-2-5v-17l5-19 6-14 9-13 7-6z" fill="#CC9866"/>
<path transform="translate(1155,1387)" d="m0 0h8l3 4v14l-3 12-4 10-9 16-9 11-8 6-8 1-4-5v-15l4-13 8-16 9-14 8-8z" fill="#CC9866"/>
<path transform="translate(1308,739)" d="m0 0 12 1 15 5 9 7 3 7-1 8-3 5-4 1-4-3v-2l-4-2-12-13-11-13z" fill="#CC9866"/>
<path transform="translate(894,671)" d="m0 0 3 1-5 2z" fill="#CC9866"/>
<path transform="translate(882,678)" d="m0 0 2 1z" fill="#CC9866"/>
<path transform="translate(884,677)" d="m0 0 2 1z" fill="#CC9866"/>
<path transform="translate(886,676)" d="m0 0 2 1z" fill="#CC9866"/>
<path transform="translate(888,675)" d="m0 0 2 1z" fill="#CC9866"/>
<path transform="translate(1817,631)" d="m0 0" fill="#CC9866"/>
<path transform="translate(842,1672)" d="m0 0" fill="#CC9866"/>
<path transform="translate(841,1671)" d="m0 0" fill="#CC9866"/>
<path transform="translate(725,1315)" d="m0 0" fill="#CC9866"/>
<path transform="translate(535,1023)" d="m0 0" fill="#CC9866"/>
<path transform="translate(319,1013)" d="m0 0" fill="#CC9866"/>
<path transform="translate(1544,957)" d="m0 0" fill="#CC9866"/>
<path transform="translate(1534,920)" d="m0 0" fill="#CC9866"/>
<path transform="translate(881,679)" d="m0 0" fill="#CC9866"/>
<path transform="translate(890,674)" d="m0 0" fill="#CC9866"/>
<path transform="translate(1819,636)" d="m0 0" fill="#CC9866"/>
<path transform="translate(1818,634)" d="m0 0" fill="#CC9866"/>
<path transform="translate(1653,361)" d="m0 0" fill="#CC9866"/>
<path transform="translate(783,125)" d="m0 0" fill="#CC9866"/>
</svg>
