<svg width="38" height="35" viewBox="0 0 38 35" fill="none" xmlns="http://www.w3.org/2000/svg">
<path fill-rule="evenodd" clip-rule="evenodd" d="M15.8865 8.32268C16.0809 6.13136 15.3221 3.96248 13.804 2.37024C12.286 0.778011 10.1558 -0.083313 7.95767 0.00636572C5.76004 -0.0825106 3.63055 0.779165 2.11312 2.3713C0.595689 3.96343 -0.162734 6.13185 0.031571 8.32268C-0.168386 10.5143 0.588328 12.6855 2.10721 14.2782C3.62608 15.8708 5.75899 16.7295 7.95767 16.6336C10.1568 16.7303 12.2905 15.8719 13.81 14.2792C15.3295 12.6865 16.0865 10.5148 15.8865 8.32268ZM5.88199 6.20938C5.34352 6.77431 5.07478 7.54395 5.14454 8.32123C5.07561 9.09805 5.34472 9.86693 5.88309 10.4312C6.42177 10.9959 7.17772 11.3008 7.95741 11.2681C8.73663 11.3 9.49184 10.9947 10.0299 10.4302C10.568 9.86564 10.8367 9.09666 10.7674 8.31986C10.8367 7.54307 10.568 6.77408 10.0299 6.20955C9.49184 5.64502 8.73663 5.33968 7.95741 5.37162C7.17721 5.33879 6.42077 5.64413 5.88199 6.20938ZM28.5601 0.00612034C27.5779 0.00785563 26.6596 0.49337 26.105 1.3041L7.04176 29.5292C6.35692 30.4042 6.21565 31.5875 6.67525 32.5992C7.13486 33.6108 8.11902 34.2829 9.22858 34.3427C10.3381 34.4025 11.3889 33.8402 11.9546 32.8839L31.0179 4.65881C31.6357 3.7469 31.7003 2.56857 31.1858 1.5946C30.6713 0.620626 29.6616 0.00978639 28.5601 0.00612034ZM24.1913 19.9177C25.7093 18.3261 27.839 17.4651 30.0366 17.5547C32.2346 17.4643 34.3651 18.3249 35.8837 19.9166C37.4023 21.5083 38.1618 23.6769 37.9681 25.8683C38.1691 28.0614 37.412 30.2343 35.8918 31.8277C34.3716 33.4212 32.2367 34.2795 30.0366 34.1819C27.8369 34.2787 25.7028 33.42 24.1832 31.8267C22.6636 30.2333 21.9069 28.0609 22.1078 25.8683C21.9142 23.6774 22.6734 21.5093 24.1913 19.9177ZM27.9642 27.9787C28.5022 28.5432 29.2574 28.8486 30.0367 28.8166C30.8163 28.8494 31.5723 28.5444 32.111 27.9797C32.6497 27.4151 32.9188 26.6457 32.8494 25.8684C32.9054 24.8279 32.3821 23.8416 31.4892 23.3045C30.5963 22.7674 29.4797 22.7674 28.5868 23.3045C27.6939 23.8416 27.1706 24.8279 27.2266 25.8684C27.1573 26.6452 27.4261 27.4142 27.9642 27.9787Z" fill="#BF0000"/>
</svg>
