<svg width="64" height="64" viewBox="0 0 64 64" fill="none" xmlns="http://www.w3.org/2000/svg">
<rect width="64" height="64" rx="32" fill="#F1F1F1" fill-opacity="0.6"/>
<path fill-rule="evenodd" clip-rule="evenodd" d="M20.6667 29.757C20.6667 23.6238 25.7919 18.6666 31.9913 18.6666C38.2082 18.6666 43.3334 23.6238 43.3334 29.757C43.3334 32.8475 42.2094 35.7168 40.3594 38.1487C38.3185 40.8313 35.803 43.1686 32.9715 45.0032C32.3234 45.4272 31.7386 45.4592 31.0273 45.0032C28.1797 43.1686 25.6642 40.8313 23.6407 38.1487C21.7894 35.7168 20.6667 32.8475 20.6667 29.757ZM28.2591 30.1023C28.2591 32.1569 29.9356 33.7729 31.9913 33.7729C34.0484 33.7729 35.7411 32.1569 35.7411 30.1023C35.7411 28.0637 34.0484 26.3691 31.9913 26.3691C29.9356 26.3691 28.2591 28.0637 28.2591 30.1023Z" fill="#024A22"/>
</svg>
