<svg width="17" height="16" viewBox="0 0 17 16" fill="none" xmlns="http://www.w3.org/2000/svg">
<path d="M15.4069 2.35925C15.1702 2.1226 14.7865 2.1226 14.5499 2.35925L10.1298 6.77936L5.70967 2.35925C5.47303 2.1226 5.08936 2.1226 4.85272 2.35925C4.61607 2.59589 4.61607 2.97956 4.85272 3.2162L9.27282 7.63631L4.85273 12.0564C4.61608 12.2931 4.61608 12.6767 4.85273 12.9134C5.08937 13.15 5.47305 13.15 5.70969 12.9134L10.1298 8.49326L14.5499 12.9134C14.7865 13.15 15.1702 13.15 15.4069 12.9134C15.6435 12.6767 15.6435 12.2931 15.4069 12.0564L10.9867 7.63631L15.4069 3.2162C15.6435 2.97956 15.6435 2.59589 15.4069 2.35925Z" fill="#C70000"/>
</svg>
