<svg width="22" height="22" viewBox="0 0 22 22" fill="none" xmlns="http://www.w3.org/2000/svg">
<g clip-path="url(#clip0_629_1113)">
<path d="M5.78327 9.28204C5.89045 9.15241 5.92593 8.99078 5.92593 8.79722V8.35033C5.92593 8.15693 5.88941 7.99345 5.78023 7.86004C5.67112 7.72633 5.52445 7.65967 5.32208 7.65967C5.12356 7.65967 4.95445 7.72633 4.84527 7.86004C4.7363 7.99345 4.66675 8.15693 4.66675 8.35033V8.79722C4.66675 8.99078 4.74082 9.15241 4.84971 9.28204C4.95897 9.41167 5.11734 9.47633 5.32393 9.47633C5.52238 9.47633 5.67616 9.41167 5.78327 9.28204Z" fill="#FAAC01"/>
<path d="M9.37935 12.4497C9.17683 12.4497 9.01705 12.5165 8.90809 12.6499C8.79898 12.7835 8.74075 12.945 8.74075 13.1347V13.5815C8.74075 13.7674 8.80683 13.9279 8.93157 14.0634C9.05616 14.1988 9.20994 14.2664 9.38905 14.2664C9.63038 14.2664 9.79009 14.2064 9.87572 14.0864C9.9612 13.9666 10 13.7982 10 13.5815V13.1347C10 12.945 9.94979 12.7835 9.83868 12.6499C9.72772 12.5166 9.57772 12.4497 9.37935 12.4497Z" fill="#FAAC01"/>
<path d="M3 4.88892C1.34315 4.88892 0 6.23206 0 7.88892V14.1111C0 15.768 1.34315 17.1111 3 17.1111H19C20.6569 17.1111 22 15.768 22 14.1111V7.88891C22 6.23206 20.6569 4.88892 19 4.88892H3ZM3.40741 8.79862V8.34884C3.40741 7.84262 3.58926 7.42306 3.91652 7.09003C4.24363 6.75699 4.71822 6.59062 5.32185 6.59062C5.93311 6.59062 6.38504 6.75699 6.712 7.09003C7.03926 7.42306 7.18526 7.84262 7.18526 8.34884V8.79862C7.18526 9.30499 7.04385 9.72269 6.71659 10.0517C6.38963 10.3809 5.93526 10.5453 5.3317 10.5453C4.72422 10.5453 4.24304 10.3798 3.91378 10.0488C3.58467 9.71773 3.40741 9.30106 3.40741 8.79862ZM5.23595 14.3724C4.96721 14.2371 4.87285 13.9002 5.03225 13.645L8.64148 7.86799C8.78141 7.64401 9.06891 7.56347 9.30483 7.68215C9.57373 7.81741 9.66817 8.15454 9.50867 8.4098L5.89916 14.1867C5.75925 14.4106 5.4718 14.4911 5.23595 14.3724ZM11.2593 13.5831C11.2593 14.0932 11.103 14.5128 10.7779 14.8419C10.4527 15.1708 9.99133 15.3354 9.38778 15.3354C8.7803 15.3354 8.31207 15.17 7.97889 14.839C7.64615 14.5078 7.48148 14.0894 7.48148 13.5831V13.1333C7.48148 12.6308 7.64667 12.2131 7.9777 11.8801C8.30874 11.5472 8.77585 11.3807 9.37956 11.3807C9.99067 11.3807 10.4529 11.5463 10.778 11.8772C11.1031 12.2082 11.2593 12.6269 11.2593 13.1333V13.5831ZM15.9259 14.7037C15.9259 15.0515 15.644 15.3334 15.2963 15.3334C14.9486 15.3334 14.6667 15.0515 14.6667 14.7037V13.8148C14.6667 13.4671 14.9486 13.1852 15.2963 13.1852C15.644 13.1852 15.9259 13.4671 15.9259 13.8148V14.7037ZM15.9259 11.4445C15.9259 11.7922 15.644 12.0741 15.2963 12.0741C14.9486 12.0741 14.6667 11.7922 14.6667 11.4445V10.5556C14.6667 10.2078 14.9486 9.92595 15.2963 9.92595C15.644 9.92595 15.9259 10.2078 15.9259 10.5556V11.4445ZM15.9259 8.11114C15.9259 8.45887 15.644 8.74077 15.2963 8.74077C14.9486 8.74077 14.6667 8.45887 14.6667 8.11114V7.22225C14.6667 6.87451 14.9486 6.59262 15.2963 6.59262C15.644 6.59262 15.9259 6.87451 15.9259 7.22225V8.11114Z" fill="#FAAC01"/>
</g>
<defs>
<clipPath id="clip0_629_1113">
<rect width="22" height="22" fill="white"/>
</clipPath>
</defs>
</svg>
