<svg width="17" height="17" viewBox="0 0 17 17" fill="none" xmlns="http://www.w3.org/2000/svg">
<path d="M3.55608 15.0574L2.16671 5.33337H14.8334L13.444 15.0574C13.3901 15.4347 13.2019 15.7799 12.9139 16.0296C12.626 16.2793 12.2576 16.4167 11.8765 16.4167H5.12358C4.74246 16.4167 4.37411 16.2793 4.08617 16.0296C3.79822 15.7799 3.61001 15.4347 3.55608 15.0574ZM15.625 2.16671H11.6667V1.37504C11.6667 1.16508 11.5833 0.963714 11.4348 0.815248C11.2864 0.666781 11.085 0.583374 10.875 0.583374H6.12504C5.91508 0.583374 5.71371 0.666781 5.56525 0.815248C5.41678 0.963714 5.33337 1.16508 5.33337 1.37504V2.16671H1.37504C1.16508 2.16671 0.963714 2.25011 0.815248 2.39858C0.666781 2.54705 0.583374 2.74841 0.583374 2.95837C0.583374 3.16834 0.666781 3.3697 0.815248 3.51817C0.963714 3.66663 1.16508 3.75004 1.37504 3.75004H15.625C15.835 3.75004 16.0364 3.66663 16.1848 3.51817C16.3333 3.3697 16.4167 3.16834 16.4167 2.95837C16.4167 2.74841 16.3333 2.54705 16.1848 2.39858C16.0364 2.25011 15.835 2.16671 15.625 2.16671Z" fill="white"/>
</svg>
