<svg width="16" height="14" viewBox="0 0 16 14" fill="none" xmlns="http://www.w3.org/2000/svg">
<path d="M8.51781 4.17407H0.78125C0.57405 4.17407 0.375336 4.09176 0.228823 3.94525C0.08231 3.79874 0 3.60002 0 3.39282C0 3.18562 0.08231 2.98691 0.228823 2.8404C0.375336 2.69388 0.57405 2.61157 0.78125 2.61157H8.51875C8.72595 2.61157 8.92466 2.69388 9.07118 2.8404C9.21769 2.98691 9.3 3.18562 9.3 3.39282C9.3 3.60002 9.21769 3.79874 9.07118 3.94525C8.92466 4.09176 8.72595 4.17407 8.51875 4.17407H8.51781Z" fill="#1C1B1B"/>
<path d="M15.2187 4.17407H13.2631C13.0559 4.17407 12.8572 4.09176 12.7107 3.94525C12.5642 3.79874 12.4819 3.60002 12.4819 3.39282C12.4819 3.18562 12.5642 2.98691 12.7107 2.8404C12.8572 2.69388 13.0559 2.61157 13.2631 2.61157H15.2187C15.4259 2.61157 15.6247 2.69388 15.7712 2.8404C15.9177 2.98691 16 3.18562 16 3.39282C16 3.60002 15.9177 3.79874 15.7712 3.94525C15.6247 4.09176 15.4259 4.17407 15.2187 4.17407Z" fill="#1C1B1B"/>
<path d="M15.2187 11.3887H7.48212C7.27492 11.3887 7.0762 11.3064 6.92969 11.1598C6.78318 11.0133 6.70087 10.8146 6.70087 10.6074C6.70087 10.4002 6.78318 10.2015 6.92969 10.055C7.0762 9.90848 7.27492 9.82617 7.48212 9.82617H15.2187C15.4259 9.82617 15.6246 9.90848 15.7711 10.055C15.9176 10.2015 15.9999 10.4002 15.9999 10.6074C15.9999 10.8146 15.9176 11.0133 15.7711 11.1598C15.6246 11.3064 15.4259 11.3887 15.2187 11.3887Z" fill="#1C1B1B"/>
<path d="M2.73688 11.3887H0.78125C0.57405 11.3887 0.375336 11.3064 0.228823 11.1598C0.08231 11.0133 0 10.8146 0 10.6074C0 10.4002 0.08231 10.2015 0.228823 10.055C0.375336 9.90848 0.57405 9.82617 0.78125 9.82617H2.73688C2.94408 9.82617 3.14279 9.90848 3.2893 10.055C3.43582 10.2015 3.51813 10.4002 3.51813 10.6074C3.51813 10.8146 3.43582 11.0133 3.2893 11.1598C3.14279 11.3064 2.94408 11.3887 2.73688 11.3887Z" fill="#1C1B1B"/>
<path d="M5.10976 13.7039C4.48593 13.7039 3.8761 13.519 3.35737 13.1725C2.83865 12.8259 2.43433 12.3334 2.19556 11.757C1.95679 11.1807 1.89429 10.5465 2.01595 9.93468C2.13762 9.32283 2.43799 8.7608 2.87908 8.31967C3.32017 7.87853 3.88217 7.57811 4.49401 7.45638C5.10584 7.33466 5.74003 7.3971 6.31638 7.63581C6.89273 7.87453 7.38535 8.27879 7.73193 8.79748C8.07852 9.31617 8.26351 9.92599 8.26351 10.5498C8.26293 11.3861 7.93048 12.188 7.33918 12.7793C6.74787 13.3707 5.94604 13.7032 5.10976 13.7039ZM5.10976 8.95857C4.79495 8.9585 4.4872 9.0518 4.22542 9.22666C3.96364 9.40152 3.7596 9.65009 3.63909 9.94092C3.51859 10.2318 3.48705 10.5518 3.54845 10.8606C3.60985 11.1693 3.76144 11.4529 3.98404 11.6755C4.20665 11.8981 4.49026 12.0497 4.79903 12.1111C5.10779 12.1725 5.42782 12.141 5.71866 12.0205C6.00949 11.9 6.25805 11.6959 6.43291 11.4342C6.60777 11.1724 6.70107 10.8646 6.70101 10.5498C6.70035 10.128 6.53249 9.72364 6.23421 9.42536C5.93594 9.12709 5.53158 8.95923 5.10976 8.95857Z" fill="#1C1B1B"/>
<path d="M10.8902 6.54665C10.2664 6.54665 9.65659 6.36167 9.13791 6.0151C8.61922 5.66852 8.21496 5.17593 7.97624 4.5996C7.73751 4.02327 7.67505 3.38909 7.79675 2.77726C7.91845 2.16543 8.21885 1.60343 8.65995 1.16233C9.10105 0.721227 9.66305 0.420831 10.2749 0.299131C10.8867 0.177431 11.5209 0.239892 12.0972 0.478616C12.6735 0.717339 13.1661 1.1216 13.5127 1.64029C13.8593 2.15897 14.0443 2.76877 14.0443 3.39259C14.0437 4.22892 13.7112 5.03083 13.1198 5.62221C12.5285 6.21358 11.7265 6.54607 10.8902 6.54665ZM10.8902 1.80134C10.5754 1.80134 10.2677 1.89469 10.006 2.06959C9.74421 2.24448 9.54022 2.49307 9.41977 2.78391C9.29931 3.07475 9.26781 3.39477 9.32925 3.70352C9.39069 4.01226 9.5423 4.29585 9.76491 4.51842C9.98753 4.74099 10.2711 4.89255 10.5799 4.95392C10.8887 5.0153 11.2087 4.98373 11.4995 4.86322C11.7903 4.74271 12.0389 4.53867 12.2137 4.2769C12.3885 4.01513 12.4818 3.70738 12.4818 3.39259C12.4811 2.97071 12.3132 2.56631 12.0149 2.26803C11.7165 1.96974 11.3121 1.80192 10.8902 1.80134Z" fill="#1C1B1B"/>
</svg>
