<svg width="25" height="25" viewBox="0 0 25 25" fill="none" xmlns="http://www.w3.org/2000/svg">
<path d="M20.8333 11.4583C20.8333 13.8214 19.6421 15.9609 18.1605 17.7083C16.5671 19.5874 14.638 21.0129 13.493 21.7749C12.8871 22.1779 12.1128 22.1779 11.5069 21.7749C10.362 21.0129 8.43275 19.5874 6.83945 17.7083C5.3578 15.9609 4.16663 13.8214 4.16663 11.4583C4.16663 6.85596 7.89758 3.125 12.5 3.125C17.1024 3.125 20.8333 6.85596 20.8333 11.4583Z" fill="#FAAC01" stroke="#FAAC01" stroke-width="2"/>
<path d="M15.625 11.4583C15.625 13.1842 14.2259 14.5833 12.5 14.5833C10.7741 14.5833 9.375 13.1842 9.375 11.4583C9.375 9.73237 10.7741 8.33325 12.5 8.33325C14.2259 8.33325 15.625 9.73237 15.625 11.4583Z" fill="#F0F0F0"/>
</svg>
