<svg width="31" height="33" viewBox="0 0 31 33" fill="none" xmlns="http://www.w3.org/2000/svg">
<g opacity="0.32">
<path fill-rule="evenodd" clip-rule="evenodd" d="M8.15451 17.1366C8.00841 12.7767 11.1209 9.10965 15.1138 8.9375C19.1067 9.10965 22.2193 12.7767 22.0732 17.1366C22.0732 18.9475 23.8753 20.7116 23.9281 22.5266C23.9281 22.5523 23.9281 22.5779 23.9281 22.6036C23.9671 23.7665 23.1369 24.7444 22.0719 24.7899H18.0519C18.0557 25.6809 17.748 26.54 17.1918 27.192C16.6569 27.8261 15.9034 28.1869 15.1138 28.1869C14.3242 28.1869 13.5708 27.8261 13.0359 27.192C12.4796 26.54 12.172 25.6809 12.1757 24.7899H8.15451C7.08956 24.7444 6.2592 23.7665 6.29819 22.6036C6.29819 22.5779 6.29819 22.5523 6.29819 22.5266C6.35235 20.7171 8.15451 18.9489 8.15451 17.1366Z" stroke="black" stroke-width="1.875" stroke-linecap="round" stroke-linejoin="round"/>
<path d="M12.1756 23.7586C11.6406 23.7586 11.2068 24.2203 11.2068 24.7899C11.2068 25.3594 11.6406 25.8211 12.1756 25.8211V23.7586ZM18.0519 25.8211C18.5869 25.8211 19.0206 25.3594 19.0206 24.7899C19.0206 24.2203 18.5869 23.7586 18.0519 23.7586V25.8211ZM16.3731 7.21875C16.9081 7.21875 17.3418 6.75704 17.3418 6.1875C17.3418 5.61796 16.9081 5.15625 16.3731 5.15625V7.21875ZM13.8543 5.15625C13.3193 5.15625 12.8856 5.61796 12.8856 6.1875C12.8856 6.75704 13.3193 7.21875 13.8543 7.21875V5.15625ZM12.1756 25.8211H18.0519V23.7586H12.1756V25.8211ZM16.3731 5.15625H13.8543V7.21875H16.3731V5.15625Z" fill="black"/>
</g>
</svg>
