<svg width="64" height="64" viewBox="0 0 64 64" fill="none" xmlns="http://www.w3.org/2000/svg">
<rect width="64" height="64" rx="32" fill="#00810B" fill-opacity="0.1"/>
<path fill-rule="evenodd" clip-rule="evenodd" d="M20.6666 29.757C20.6666 23.6238 25.7918 18.6666 31.9912 18.6666C38.2081 18.6666 43.3333 23.6238 43.3333 29.757C43.3333 32.8475 42.2093 35.7168 40.3593 38.1487C38.3184 40.8313 35.8028 43.1686 32.9713 45.0032C32.3233 45.4272 31.7385 45.4592 31.0272 45.0032C28.1796 43.1686 25.6641 40.8313 23.6406 38.1487C21.7893 35.7168 20.6666 32.8475 20.6666 29.757ZM28.2589 30.1023C28.2589 32.1569 29.9355 33.7729 31.9912 33.7729C34.0483 33.7729 35.741 32.1569 35.741 30.1023C35.741 28.0637 34.0483 26.3691 31.9912 26.3691C29.9355 26.3691 28.2589 28.0637 28.2589 30.1023Z" fill="#00810B"/>
</svg>
