<svg width="54" height="54" viewBox="0 0 54 54" fill="none" xmlns="http://www.w3.org/2000/svg">
<rect width="54" height="54" rx="27" fill="#00810B" fill-opacity="0.1"/>
<g clip-path="url(#clip0_636_1609)">
<path d="M21.7833 25.282C21.8905 25.1524 21.9259 24.9908 21.9259 24.7972V24.3503C21.9259 24.1569 21.8894 23.9934 21.7802 23.86C21.6711 23.7263 21.5245 23.6597 21.3221 23.6597C21.1236 23.6597 20.9545 23.7263 20.8453 23.86C20.7363 23.9934 20.6667 24.1569 20.6667 24.3503V24.7972C20.6667 24.9908 20.7408 25.1524 20.8497 25.282C20.959 25.4117 21.1173 25.4763 21.3239 25.4763C21.5224 25.4763 21.6762 25.4117 21.7833 25.282Z" fill="#00810B"/>
<path d="M25.3793 28.4497C25.1768 28.4497 25.017 28.5165 24.9081 28.6499C24.7989 28.7835 24.7407 28.945 24.7407 29.1347V29.5815C24.7407 29.7674 24.8068 29.9279 24.9315 30.0634C25.0561 30.1988 25.2099 30.2664 25.389 30.2664C25.6304 30.2664 25.7901 30.2064 25.8757 30.0864C25.9612 29.9666 26 29.7982 26 29.5815V29.1347C26 28.945 25.9498 28.7835 25.8386 28.6499C25.7277 28.5166 25.5777 28.4497 25.3793 28.4497Z" fill="#00810B"/>
<path d="M19 20.8889C17.3431 20.8889 16 22.2321 16 23.8889V30.1111C16 31.768 17.3431 33.1111 19 33.1111H35C36.6569 33.1111 38 31.768 38 30.1111V23.8889C38 22.2321 36.6569 20.8889 35 20.8889H19ZM19.4074 24.7986V24.3488C19.4074 23.8426 19.5893 23.4231 19.9165 23.09C20.2436 22.757 20.7182 22.5906 21.3219 22.5906C21.9331 22.5906 22.385 22.757 22.712 23.09C23.0393 23.4231 23.1853 23.8426 23.1853 24.3488V24.7986C23.1853 25.305 23.0439 25.7227 22.7166 26.0517C22.3896 26.3809 21.9353 26.5453 21.3317 26.5453C20.7242 26.5453 20.243 26.3798 19.9138 26.0488C19.5847 25.7177 19.4074 25.3011 19.4074 24.7986ZM21.2359 30.3724C20.9672 30.2371 20.8728 29.9002 21.0323 29.645L24.6415 23.868C24.7814 23.644 25.0689 23.5635 25.3048 23.6821C25.5737 23.8174 25.6682 24.1545 25.5087 24.4098L21.8992 30.1867C21.7593 30.4106 21.4718 30.4911 21.2359 30.3724ZM27.2593 29.5831C27.2593 30.0932 27.103 30.5128 26.7779 30.8419C26.4527 31.1708 25.9913 31.3354 25.3878 31.3354C24.7803 31.3354 24.3121 31.17 23.9789 30.839C23.6461 30.5078 23.4815 30.0894 23.4815 29.5831V29.1333C23.4815 28.6308 23.6467 28.2131 23.9777 27.8801C24.3087 27.5472 24.7759 27.3807 25.3796 27.3807C25.9907 27.3807 26.4529 27.5463 26.778 27.8772C27.1031 28.2082 27.2593 28.6269 27.2593 29.1333V29.5831ZM31.9259 30.7037C31.9259 31.0515 31.644 31.3334 31.2963 31.3334C30.9486 31.3334 30.6667 31.0515 30.6667 30.7037V29.8148C30.6667 29.4671 30.9486 29.1852 31.2963 29.1852C31.644 29.1852 31.9259 29.4671 31.9259 29.8148V30.7037ZM31.9259 27.4445C31.9259 27.7922 31.644 28.0741 31.2963 28.0741C30.9486 28.0741 30.6667 27.7922 30.6667 27.4445V26.5556C30.6667 26.2078 30.9486 25.926 31.2963 25.926C31.644 25.926 31.9259 26.2078 31.9259 26.5556V27.4445ZM31.9259 24.1111C31.9259 24.4589 31.644 24.7408 31.2963 24.7408C30.9486 24.7408 30.6667 24.4589 30.6667 24.1111V23.2222C30.6667 22.8745 30.9486 22.5926 31.2963 22.5926C31.644 22.5926 31.9259 22.8745 31.9259 23.2222V24.1111Z" fill="#00810B"/>
</g>
<defs>
<clipPath id="clip0_636_1609">
<rect width="22" height="22" fill="white" transform="translate(16 16)"/>
</clipPath>
</defs>
</svg>
